<svg width="82" height="73" viewBox="0 0 82 73" fill="none" xmlns="http://www.w3.org/2000/svg">
<path d="M82 72.0408L0.639969 7.62939e-06L82 7.62939e-06L82 72.0408Z" fill="#F8475F"/>
<path d="M47.424 28.4229C46.2826 28.4229 45.28 28.1829 44.416 27.7029C43.552 27.2123 42.88 26.5296 42.4 25.6549C41.9306 24.7803 41.696 23.7616 41.696 22.5989C41.696 21.7243 41.8293 20.9296 42.096 20.2149C42.3733 19.5003 42.7626 18.8869 43.264 18.3749C43.776 17.8629 44.384 17.4736 45.088 17.2069C45.792 16.9296 46.5706 16.7909 47.424 16.7909C48.5653 16.7909 49.5626 17.0309 50.416 17.5109C51.28 17.9909 51.952 18.6683 52.432 19.5429C52.912 20.4069 53.152 21.4256 53.152 22.5989C53.152 23.4736 53.0133 24.2683 52.736 24.9829C52.4693 25.6976 52.08 26.3163 51.568 26.8389C51.0666 27.3509 50.464 27.7456 49.76 28.0229C49.056 28.2896 48.2773 28.4229 47.424 28.4229ZM47.424 25.9589C47.9893 25.9589 48.4693 25.8256 48.864 25.5589C49.2586 25.2923 49.5626 24.9083 49.776 24.4069C49.9893 23.9056 50.096 23.3029 50.096 22.5989C50.096 21.5429 49.8613 20.7216 49.392 20.1349C48.9226 19.5483 48.2666 19.2549 47.424 19.2549C46.8693 19.2549 46.3893 19.3883 45.984 19.6549C45.5893 19.9109 45.2853 20.2896 45.072 20.7909C44.8586 21.2816 44.752 21.8843 44.752 22.5989C44.752 23.6549 44.9866 24.4816 45.456 25.0789C45.9253 25.6656 46.5813 25.9589 47.424 25.9589ZM56.3782 28.3909C55.9089 28.3909 55.5409 28.2629 55.2742 28.0069C55.0182 27.7403 54.8902 27.3616 54.8902 26.8709V18.4869C54.8902 17.9963 55.0182 17.6229 55.2742 17.3669C55.5409 17.1003 55.9249 16.9669 56.4262 16.9669H61.7542C62.1382 16.9669 62.4262 17.0629 62.6182 17.2549C62.8102 17.4469 62.9062 17.7243 62.9062 18.0869C62.9062 18.4603 62.8102 18.7483 62.6182 18.9509C62.4262 19.1429 62.1382 19.2389 61.7542 19.2389H57.8342V21.5109H61.4022C61.7756 21.5109 62.0582 21.6069 62.2502 21.7989C62.4529 21.9909 62.5542 22.2683 62.5542 22.6309C62.5542 23.0043 62.4529 23.2869 62.2502 23.4789C62.0582 23.6709 61.7756 23.7669 61.4022 23.7669H57.8342V26.8709C57.8342 27.8843 57.3489 28.3909 56.3782 28.3909ZM65.6439 28.3909C65.1745 28.3909 64.8065 28.2629 64.5399 28.0069C64.2839 27.7403 64.1559 27.3616 64.1559 26.8709V18.4869C64.1559 17.9963 64.2839 17.6229 64.5399 17.3669C64.8065 17.1003 65.1905 16.9669 65.6919 16.9669H71.0199C71.4039 16.9669 71.6919 17.0629 71.8839 17.2549C72.0759 17.4469 72.1719 17.7243 72.1719 18.0869C72.1719 18.4603 72.0759 18.7483 71.8839 18.9509C71.6919 19.1429 71.4039 19.2389 71.0199 19.2389H67.0999V21.5109H70.6679C71.0412 21.5109 71.3239 21.6069 71.5159 21.7989C71.7185 21.9909 71.8199 22.2683 71.8199 22.6309C71.8199 23.0043 71.7185 23.2869 71.5159 23.4789C71.3239 23.6709 71.0412 23.7669 70.6679 23.7669H67.0999V26.8709C67.0999 27.8843 66.6145 28.3909 65.6439 28.3909Z" fill="white"/>
</svg>
