<svg width="76" height="19" viewBox="0 0 76 19" fill="none" xmlns="http://www.w3.org/2000/svg">
<path d="M58.8507 18.633H56.1884V6.11907H58.8507V18.633Z" fill="white"/>
<path d="M5.77868 8.68491C5.36706 8.679 4.95883 8.76399 4.58027 8.93439C4.20171 9.10479 3.86122 9.35683 3.58072 9.67428C2.98221 10.3266 2.68296 11.229 2.68296 12.3706C2.68296 13.5122 2.98221 14.4363 3.59104 15.0995C3.87586 15.4207 4.22128 15.6756 4.60513 15.8479C4.98898 16.0202 5.40278 16.1059 5.81996 16.0997C6.60421 16.0997 7.23367 15.8714 7.70835 15.4257C8.14965 15.0202 8.47485 14.4931 8.64739 13.9036L11.0001 14.806C10.6906 15.8606 10.0921 16.7738 9.20462 17.5349C8.31718 18.2959 7.1924 18.6765 5.81996 18.6765C4.16891 18.6765 2.78615 18.0785 1.67169 16.8717C0.55723 15.6649 0 14.1645 0 12.3706C0 10.5549 0.546911 9.05456 1.65105 7.8695C2.75519 6.68443 4.11731 6.08646 5.75805 6.08646C7.16144 6.08646 8.30686 6.46698 9.1943 7.22804C10.0357 7.92472 10.6403 8.88975 10.9176 9.9787L8.51324 10.9028C8.36888 10.3009 8.06037 9.7566 7.6258 9.33724C7.17279 8.90235 6.56396 8.68491 5.77868 8.68491Z" fill="white"/>
<path d="M15.4177 15.0669C15.7144 15.3832 16.0675 15.6345 16.4568 15.8063C16.846 15.9782 17.2637 16.0672 17.6858 16.0682C18.1078 16.0692 18.5259 15.9822 18.9159 15.8122C19.3059 15.6422 19.6601 15.3926 19.9581 15.0778C20.5773 14.4146 20.8868 13.5013 20.8868 12.3162C20.8868 11.1529 20.5773 10.2505 19.9581 9.59817C19.3524 8.97109 18.5371 8.61972 17.6879 8.61972C16.8387 8.61972 16.0235 8.97109 15.4177 9.59817C14.7986 10.2505 14.489 11.1529 14.489 12.3162C14.489 13.4795 14.7986 14.4037 15.4177 15.0669ZM17.6879 6.08646C19.4112 6.08646 20.8353 6.67355 21.9497 7.84775C23.0642 9.02195 23.6317 10.5114 23.6317 12.3271C23.6317 14.1427 23.0745 15.6322 21.9497 16.8173C20.8249 18.0024 19.4112 18.5895 17.6879 18.5895C15.9853 18.5895 14.5716 18.0024 13.4468 16.8173C12.322 15.6322 11.7648 14.1319 11.7648 12.3271C11.7648 10.5223 12.322 9.03282 13.4468 7.84775C14.5716 6.66268 15.975 6.08646 17.6879 6.08646Z" fill="white"/>
<path d="M30.5765 6.16256V9.02195C30.2861 8.97501 29.993 8.94958 29.6993 8.94584C27.6768 8.94584 26.6758 9.98957 26.6758 12.3053V18.5895H23.9929V6.11907H26.6036V8.11955C26.8603 7.48989 27.3062 6.96655 27.8729 6.63006C28.4772 6.26075 29.1659 6.07275 29.8644 6.08645C30.1037 6.08429 30.3425 6.10981 30.5765 6.16256Z" fill="white"/>
<path d="M34.2397 11.0442H40.2145C40.205 10.6923 40.1278 10.3461 39.9877 10.0266C39.8476 9.70702 39.6474 9.42074 39.3993 9.18503C38.8936 8.68491 38.161 8.43485 37.2116 8.43485C36.3448 8.43485 35.6431 8.69578 35.1169 9.21765C34.5906 9.73951 34.2913 10.3527 34.2397 11.0442ZM40.5344 14.1101L42.98 14.8603C42.6291 15.9367 41.979 16.8282 41.0194 17.5349C40.0597 18.2416 38.8833 18.5895 37.4799 18.5895C35.7463 18.5895 34.281 18.0133 33.0737 16.8717C31.8663 15.7301 31.2575 14.1971 31.2575 12.2727C31.2575 10.4679 31.8457 8.97846 33.0221 7.82601C34.1373 6.69261 35.6313 6.06765 37.1807 6.08646C39.0484 6.08646 40.5034 6.64094 41.556 7.73903C42.6085 8.83712 43.1337 10.3266 43.1337 12.201C43.1337 12.7011 43.1131 12.9946 43.0615 13.0925H34.1665C34.1776 13.5132 34.2735 13.9266 34.4479 14.3052C34.6222 14.6838 34.871 15.0191 35.1777 15.2887C35.8204 15.8683 36.6434 16.178 37.4892 16.1585C39.0484 16.165 40.07 15.48 40.5344 14.1101Z" fill="white"/>
<path d="M46.4266 18.633H43.7023V0.676453H46.4472V7.90646C46.7361 7.40634 47.2108 6.98232 47.8712 6.64529C48.5804 6.2927 49.3574 6.11781 50.1414 6.13429C51.8441 6.13429 53.1752 6.71052 54.1349 7.87384C55.0946 9.03717 55.5693 10.5158 55.5693 12.3206C55.5693 14.158 55.0636 15.6583 54.0627 16.8434C53.0617 18.0285 51.7202 18.6047 50.0486 18.6047C48.3769 18.6047 47.1695 17.985 46.4266 16.7347V18.633ZM51.8647 15.0778C52.4529 14.4037 52.7418 13.4904 52.7418 12.338C52.7418 11.1855 52.4529 10.2831 51.875 9.61992C51.2972 8.95671 50.5336 8.63055 49.5842 8.63055C48.6658 8.63055 47.9125 8.95671 47.314 9.61992C46.7155 10.2831 46.4266 11.1855 46.4266 12.338C46.4266 13.4904 46.7258 14.3819 47.314 15.0669C47.9022 15.7518 48.6658 16.0889 49.5842 16.0889C50.5232 16.0889 51.2765 15.7518 51.8647 15.0778Z" fill="white"/>
<path d="M71.44 18.6221H59.6969V16.165L67.1163 8.59793H59.5731V6.11907H71.4194V8.50443L63.9071 16.1367H71.44V18.6264V18.6221Z" fill="white"/>
<path d="M72.7502 18.1016C72.5721 17.9197 72.4314 17.7018 72.3368 17.461C72.2423 17.2203 72.1958 16.9619 72.2003 16.7017C72.1957 16.44 72.2421 16.18 72.3366 15.9375C72.4312 15.6951 72.5719 15.4753 72.7502 15.2914C72.9217 15.1011 73.1297 14.9507 73.3605 14.8499C73.5913 14.7491 73.8398 14.7002 74.0899 14.7064C74.5962 14.7069 75.0816 14.9173 75.4396 15.2914C75.7976 15.6655 75.999 16.1727 75.9995 16.7017C76.0054 16.963 75.9586 17.2227 75.8622 17.4639C75.7657 17.7051 75.6217 17.9224 75.4396 18.1016C75.2631 18.2871 75.0526 18.4336 74.8207 18.5324C74.5888 18.6311 74.3403 18.68 74.0899 18.6761C73.8409 18.6809 73.5936 18.6323 73.3632 18.5335C73.1329 18.4347 72.9242 18.2877 72.7502 18.1016Z" fill="#BFBFBF"/>
</svg>
